<svg version="1" xmlns="http://www.w3.org/2000/svg" width="682.667" height="682.667" viewBox="0 0 512.000000 512.000000"><path d="M41.5 1C21.3 5.2 4.8 21.7 1 41.5c-.8 4.4-1 63.3-.8 218l.3 212 2.2 5.9c2.9 7.5 5.7 12 11.3 18 5.8 6.3 11.4 10 19.7 13.4l6.8 2.7 211 .3c151.5.2 212.9-.1 217.7-.8 17.9-3 32.7-15.4 39.9-33.5l2.4-6 .3-211c.2-151.4-.1-212.9-.9-217.7C508 25 495 9.5 477.4 2.8L471.5.5l-213-.1C141.3.3 43.7.6 41.5 1zM415 105.4c4.7.8 11.2 2.4 14.5 3.7 10.3 3.8 25.5 14 33.7 22.6l3.7 3.8-12 14.5c-6.7 8-12.7 15.1-13.4 15.9-1.1 1.2-2.2.6-7.2-3.7-15-12.9-25.8-17.3-43-17.3-18.9 0-29.5 4.1-41.4 16-16.7 16.6-25 43.4-26.5 85.6-1 27.2 2.1 55.9 8 73.3 6.8 19.9 18.2 34.4 32.6 41.4 10.7 5.1 16.5 6.3 32 6.2 14.2-.1 27.6-2.5 45-8 4.1-1.3 8-2.4 8.5-2.4.6 0 3.7 8.1 7 18 5 15.3 5.7 18.2 4.5 19-2.3 1.4-19.5 6.7-29.1 9-21.5 5-53.5 6.6-72.5 3.5-41.1-6.7-69-31.2-82.9-72.8-7.2-21.6-9.9-41.4-9.9-72.2 0-30.1 2.6-49.5 9.6-71.4 13.6-42.4 42.9-71.8 81.4-81.6 17.6-4.5 41.2-5.8 57.4-3.1zm-164.1 19.3c-1.5 9.3-3.1 18.3-3.4 20l-.6 3.3H173v258h-52V148H46v-40h207.7l-2.8 16.7z"/></svg>